<mxfile host="Electron" modified="2023-05-19T16:52:59.848Z" agent="Mozilla/5.0 (Windows NT 10.0; Win64; x64) AppleWebKit/537.36 (KHTML, like Gecko) draw.io/21.2.8 Chrome/112.0.5615.165 Electron/24.2.0 Safari/537.36" etag="qJns2EPoNhIOpm6Vvwl0" version="21.2.8" type="device">
  <diagram name="Page-1" id="2YBvvXClWsGukQMizWep">
    <mxGraphModel dx="2759" dy="1144" grid="1" gridSize="10" guides="1" tooltips="1" connect="1" arrows="1" fold="1" page="1" pageScale="1" pageWidth="850" pageHeight="1100" math="0" shadow="0">
      <root>
        <mxCell id="0" />
        <mxCell id="1" parent="0" />
        <mxCell id="X7xnpgFMUHOgwkHhTbRH-40" value="Alternative" style="shape=umlFrame;whiteSpace=wrap;html=1;pointerEvents=0;swimlaneFillColor=#F8F9FA;fillColor=#FFDF9C;" vertex="1" parent="1">
          <mxGeometry x="-50" y="365" width="1730" height="520" as="geometry" />
        </mxCell>
        <mxCell id="X7xnpgFMUHOgwkHhTbRH-74" value="Alternative" style="shape=umlFrame;whiteSpace=wrap;html=1;pointerEvents=0;swimlaneFillColor=#E6E6E6;fillColor=#FFDF9C;" vertex="1" parent="1">
          <mxGeometry x="20" y="600" width="1480" height="200" as="geometry" />
        </mxCell>
        <mxCell id="X7xnpgFMUHOgwkHhTbRH-59" value="Alternative" style="shape=umlFrame;whiteSpace=wrap;html=1;pointerEvents=0;swimlaneFillColor=#E6E6E6;fillColor=#FFDF9C;" vertex="1" parent="1">
          <mxGeometry x="20" y="370" width="1480" height="210" as="geometry" />
        </mxCell>
        <mxCell id="X7xnpgFMUHOgwkHhTbRH-54" value="StorageService" style="shape=umlLifeline;perimeter=lifelinePerimeter;whiteSpace=wrap;html=1;container=1;dropTarget=0;collapsible=0;recursiveResize=0;outlineConnect=0;portConstraint=eastwest;newEdgeStyle={&quot;edgeStyle&quot;:&quot;elbowEdgeStyle&quot;,&quot;elbow&quot;:&quot;vertical&quot;,&quot;curved&quot;:0,&quot;rounded&quot;:0};fillColor=#E6E6E6;" vertex="1" parent="1">
          <mxGeometry x="1120" y="40" width="100" height="950" as="geometry" />
        </mxCell>
        <mxCell id="X7xnpgFMUHOgwkHhTbRH-1" value="" style="shape=umlLifeline;perimeter=lifelinePerimeter;whiteSpace=wrap;html=1;container=1;dropTarget=0;collapsible=0;recursiveResize=0;outlineConnect=0;portConstraint=eastwest;newEdgeStyle={&quot;edgeStyle&quot;:&quot;elbowEdgeStyle&quot;,&quot;elbow&quot;:&quot;vertical&quot;,&quot;curved&quot;:0,&quot;rounded&quot;:0};participant=umlActor;fillColor=#E6D0DE;" vertex="1" parent="1">
          <mxGeometry x="80" y="40" width="20" height="950" as="geometry" />
        </mxCell>
        <mxCell id="X7xnpgFMUHOgwkHhTbRH-2" value="Interfaz" style="shape=umlLifeline;perimeter=lifelinePerimeter;whiteSpace=wrap;html=1;container=0;dropTarget=0;collapsible=0;recursiveResize=0;outlineConnect=0;portConstraint=eastwest;newEdgeStyle={&quot;edgeStyle&quot;:&quot;elbowEdgeStyle&quot;,&quot;elbow&quot;:&quot;vertical&quot;,&quot;curved&quot;:0,&quot;rounded&quot;:0};fillColor=#91DEBF;" vertex="1" parent="1">
          <mxGeometry x="220" y="40" width="100" height="950" as="geometry" />
        </mxCell>
        <mxCell id="X7xnpgFMUHOgwkHhTbRH-3" value="Controller" style="shape=umlLifeline;perimeter=lifelinePerimeter;whiteSpace=wrap;html=1;container=1;dropTarget=0;collapsible=0;recursiveResize=0;outlineConnect=0;portConstraint=eastwest;newEdgeStyle={&quot;edgeStyle&quot;:&quot;elbowEdgeStyle&quot;,&quot;elbow&quot;:&quot;vertical&quot;,&quot;curved&quot;:0,&quot;rounded&quot;:0};fillColor=#F7BBBD;" vertex="1" parent="1">
          <mxGeometry x="400" y="40" width="100" height="950" as="geometry" />
        </mxCell>
        <mxCell id="X7xnpgFMUHOgwkHhTbRH-4" value="ViewModel" style="shape=umlLifeline;perimeter=lifelinePerimeter;whiteSpace=wrap;html=1;container=1;dropTarget=0;collapsible=0;recursiveResize=0;outlineConnect=0;portConstraint=eastwest;newEdgeStyle={&quot;edgeStyle&quot;:&quot;elbowEdgeStyle&quot;,&quot;elbow&quot;:&quot;vertical&quot;,&quot;curved&quot;:0,&quot;rounded&quot;:0};fillColor=#9FD8E4;" vertex="1" parent="1">
          <mxGeometry x="590" y="40" width="100" height="950" as="geometry" />
        </mxCell>
        <mxCell id="X7xnpgFMUHOgwkHhTbRH-5" value="Administrador" style="text;html=1;align=center;verticalAlign=middle;resizable=0;points=[];autosize=1;strokeColor=none;fillColor=none;" vertex="1" parent="1">
          <mxGeometry x="40" y="10" width="100" height="30" as="geometry" />
        </mxCell>
        <mxCell id="X7xnpgFMUHOgwkHhTbRH-6" value="" style="shape=umlLifeline;perimeter=lifelinePerimeter;whiteSpace=wrap;html=1;container=1;dropTarget=0;collapsible=0;recursiveResize=0;outlineConnect=0;portConstraint=eastwest;newEdgeStyle={&quot;edgeStyle&quot;:&quot;elbowEdgeStyle&quot;,&quot;elbow&quot;:&quot;vertical&quot;,&quot;curved&quot;:0,&quot;rounded&quot;:0};participant=umlActor;fillColor=#FFDF9C;" vertex="1" parent="1">
          <mxGeometry x="990" y="40" width="20" height="950" as="geometry" />
        </mxCell>
        <mxCell id="X7xnpgFMUHOgwkHhTbRH-7" value="BBDD" style="text;html=1;align=center;verticalAlign=middle;resizable=0;points=[];autosize=1;strokeColor=none;fillColor=none;" vertex="1" parent="1">
          <mxGeometry x="970" y="10" width="60" height="30" as="geometry" />
        </mxCell>
        <mxCell id="X7xnpgFMUHOgwkHhTbRH-8" value="Repository" style="shape=umlLifeline;perimeter=lifelinePerimeter;whiteSpace=wrap;html=1;container=1;dropTarget=0;collapsible=0;recursiveResize=0;outlineConnect=0;portConstraint=eastwest;newEdgeStyle={&quot;edgeStyle&quot;:&quot;elbowEdgeStyle&quot;,&quot;elbow&quot;:&quot;vertical&quot;,&quot;curved&quot;:0,&quot;rounded&quot;:0};fillColor=#FFA78E;" vertex="1" parent="1">
          <mxGeometry x="790" y="40" width="100" height="950" as="geometry" />
        </mxCell>
        <mxCell id="X7xnpgFMUHOgwkHhTbRH-15" value="" style="rounded=0;whiteSpace=wrap;html=1;fillColor=#E6D0DE;" vertex="1" parent="1">
          <mxGeometry x="85" y="90" width="10" height="170" as="geometry" />
        </mxCell>
        <mxCell id="X7xnpgFMUHOgwkHhTbRH-16" value="" style="rounded=0;whiteSpace=wrap;html=1;fillColor=#91DEBF;" vertex="1" parent="1">
          <mxGeometry x="265" y="100" width="10" height="160" as="geometry" />
        </mxCell>
        <mxCell id="X7xnpgFMUHOgwkHhTbRH-17" value="" style="rounded=0;whiteSpace=wrap;html=1;fillColor=#F7BBBD;" vertex="1" parent="1">
          <mxGeometry x="445" y="110" width="10" height="30" as="geometry" />
        </mxCell>
        <mxCell id="X7xnpgFMUHOgwkHhTbRH-18" value="" style="rounded=0;whiteSpace=wrap;html=1;fillColor=#9FD8E4;" vertex="1" parent="1">
          <mxGeometry x="635" y="120" width="10" height="130" as="geometry" />
        </mxCell>
        <mxCell id="X7xnpgFMUHOgwkHhTbRH-19" value="" style="rounded=0;whiteSpace=wrap;html=1;fillColor=#FFA78E;" vertex="1" parent="1">
          <mxGeometry x="835" y="130" width="10" height="60" as="geometry" />
        </mxCell>
        <mxCell id="X7xnpgFMUHOgwkHhTbRH-20" value="" style="rounded=0;whiteSpace=wrap;html=1;fillColor=#FFDF9C;" vertex="1" parent="1">
          <mxGeometry x="995" y="140" width="10" height="40" as="geometry" />
        </mxCell>
        <mxCell id="X7xnpgFMUHOgwkHhTbRH-21" value="Selecciona fila tabla citas" style="html=1;verticalAlign=bottom;endArrow=block;edgeStyle=elbowEdgeStyle;elbow=vertical;curved=0;rounded=0;" edge="1" parent="1">
          <mxGeometry width="80" relative="1" as="geometry">
            <mxPoint x="95" y="110" as="sourcePoint" />
            <mxPoint x="262" y="108.85" as="targetPoint" />
          </mxGeometry>
        </mxCell>
        <mxCell id="X7xnpgFMUHOgwkHhTbRH-22" value="Evento" style="html=1;verticalAlign=bottom;endArrow=block;edgeStyle=elbowEdgeStyle;elbow=vertical;curved=0;rounded=0;" edge="1" parent="1">
          <mxGeometry width="80" relative="1" as="geometry">
            <mxPoint x="275" y="119.75" as="sourcePoint" />
            <mxPoint x="442" y="120" as="targetPoint" />
          </mxGeometry>
        </mxCell>
        <mxCell id="X7xnpgFMUHOgwkHhTbRH-23" value="viewModel.selectCita(id)" style="html=1;verticalAlign=bottom;endArrow=block;edgeStyle=elbowEdgeStyle;elbow=vertical;curved=0;rounded=0;" edge="1" parent="1">
          <mxGeometry width="80" relative="1" as="geometry">
            <mxPoint x="455" y="129.75" as="sourcePoint" />
            <mxPoint x="633" y="129" as="targetPoint" />
          </mxGeometry>
        </mxCell>
        <mxCell id="X7xnpgFMUHOgwkHhTbRH-24" value="repository.findById(id)" style="html=1;verticalAlign=bottom;endArrow=block;edgeStyle=elbowEdgeStyle;elbow=vertical;curved=0;rounded=0;" edge="1" parent="1">
          <mxGeometry width="80" relative="1" as="geometry">
            <mxPoint x="645" y="139.5" as="sourcePoint" />
            <mxPoint x="831" y="140" as="targetPoint" />
          </mxGeometry>
        </mxCell>
        <mxCell id="X7xnpgFMUHOgwkHhTbRH-25" value="Consulta Select" style="html=1;verticalAlign=bottom;endArrow=block;edgeStyle=elbowEdgeStyle;elbow=vertical;curved=0;rounded=0;" edge="1" parent="1">
          <mxGeometry width="80" relative="1" as="geometry">
            <mxPoint x="845" y="150" as="sourcePoint" />
            <mxPoint x="992" y="151" as="targetPoint" />
          </mxGeometry>
        </mxCell>
        <mxCell id="X7xnpgFMUHOgwkHhTbRH-26" value="ResultSet" style="html=1;verticalAlign=bottom;endArrow=open;dashed=1;endSize=8;edgeStyle=elbowEdgeStyle;elbow=vertical;curved=0;rounded=0;" edge="1" parent="1">
          <mxGeometry relative="1" as="geometry">
            <mxPoint x="995" y="174.86" as="sourcePoint" />
            <mxPoint x="847" y="174.86" as="targetPoint" />
          </mxGeometry>
        </mxCell>
        <mxCell id="X7xnpgFMUHOgwkHhTbRH-27" value="Result" style="html=1;verticalAlign=bottom;endArrow=open;dashed=1;endSize=8;edgeStyle=elbowEdgeStyle;elbow=vertical;curved=0;rounded=0;" edge="1" parent="1">
          <mxGeometry relative="1" as="geometry">
            <mxPoint x="835" y="180.19000000000003" as="sourcePoint" />
            <mxPoint x="649" y="180" as="targetPoint" />
          </mxGeometry>
        </mxCell>
        <mxCell id="X7xnpgFMUHOgwkHhTbRH-28" value="" style="edgeStyle=elbowEdgeStyle;elbow=horizontal;endArrow=classic;html=1;curved=0;rounded=0;endSize=8;startSize=8;" edge="1" parent="1">
          <mxGeometry width="50" height="50" relative="1" as="geometry">
            <mxPoint x="645" y="198" as="sourcePoint" />
            <mxPoint x="646" y="230" as="targetPoint" />
            <Array as="points">
              <mxPoint x="695" y="221" />
            </Array>
          </mxGeometry>
        </mxCell>
        <mxCell id="X7xnpgFMUHOgwkHhTbRH-29" value="Actualiza el estado" style="text;html=1;align=center;verticalAlign=middle;resizable=0;points=[];autosize=1;strokeColor=none;fillColor=none;" vertex="1" parent="1">
          <mxGeometry x="690" y="198" width="120" height="30" as="geometry" />
        </mxCell>
        <mxCell id="X7xnpgFMUHOgwkHhTbRH-30" value="Interfaz reactiva" style="html=1;verticalAlign=bottom;endArrow=open;dashed=1;endSize=8;edgeStyle=elbowEdgeStyle;elbow=vertical;curved=0;rounded=0;" edge="1" parent="1">
          <mxGeometry relative="1" as="geometry">
            <mxPoint x="635" y="240" as="sourcePoint" />
            <mxPoint x="280" y="240" as="targetPoint" />
          </mxGeometry>
        </mxCell>
        <mxCell id="X7xnpgFMUHOgwkHhTbRH-31" value="Muestra la pestaña de detalles" style="html=1;verticalAlign=bottom;endArrow=open;dashed=1;endSize=8;edgeStyle=elbowEdgeStyle;elbow=vertical;curved=0;rounded=0;" edge="1" parent="1">
          <mxGeometry relative="1" as="geometry">
            <mxPoint x="265" y="250" as="sourcePoint" />
            <mxPoint x="97" y="249" as="targetPoint" />
          </mxGeometry>
        </mxCell>
        <mxCell id="X7xnpgFMUHOgwkHhTbRH-32" value="" style="rounded=0;whiteSpace=wrap;html=1;fillColor=#E6D0DE;" vertex="1" parent="1">
          <mxGeometry x="85" y="280" width="10" height="630" as="geometry" />
        </mxCell>
        <mxCell id="X7xnpgFMUHOgwkHhTbRH-33" value="Acciona boton &quot;Descargar Informe&quot;" style="html=1;verticalAlign=bottom;endArrow=block;edgeStyle=elbowEdgeStyle;elbow=vertical;curved=0;rounded=0;" edge="1" parent="1">
          <mxGeometry width="80" relative="1" as="geometry">
            <mxPoint x="95" y="300" as="sourcePoint" />
            <mxPoint x="262" y="299" as="targetPoint" />
          </mxGeometry>
        </mxCell>
        <mxCell id="X7xnpgFMUHOgwkHhTbRH-34" value="" style="rounded=0;whiteSpace=wrap;html=1;fillColor=#91DEBF;" vertex="1" parent="1">
          <mxGeometry x="265" y="290" width="10" height="80" as="geometry" />
        </mxCell>
        <mxCell id="X7xnpgFMUHOgwkHhTbRH-35" value="" style="rounded=0;whiteSpace=wrap;html=1;fillColor=#F7BBBD;" vertex="1" parent="1">
          <mxGeometry x="445" y="300" width="10" height="50" as="geometry" />
        </mxCell>
        <mxCell id="X7xnpgFMUHOgwkHhTbRH-36" value="Evento" style="html=1;verticalAlign=bottom;endArrow=block;edgeStyle=elbowEdgeStyle;elbow=vertical;curved=0;rounded=0;" edge="1" parent="1">
          <mxGeometry width="80" relative="1" as="geometry">
            <mxPoint x="275" y="310" as="sourcePoint" />
            <mxPoint x="439" y="310" as="targetPoint" />
          </mxGeometry>
        </mxCell>
        <mxCell id="X7xnpgFMUHOgwkHhTbRH-37" value="Alerta para seleccionar el tipo" style="html=1;verticalAlign=bottom;endArrow=open;dashed=1;endSize=8;edgeStyle=elbowEdgeStyle;elbow=vertical;curved=0;rounded=0;" edge="1" parent="1">
          <mxGeometry relative="1" as="geometry">
            <mxPoint x="445" y="340" as="sourcePoint" />
            <mxPoint x="279" y="340" as="targetPoint" />
          </mxGeometry>
        </mxCell>
        <mxCell id="X7xnpgFMUHOgwkHhTbRH-38" value="Mustra la alerta" style="html=1;verticalAlign=bottom;endArrow=open;dashed=1;endSize=8;edgeStyle=elbowEdgeStyle;elbow=vertical;curved=0;rounded=0;" edge="1" parent="1">
          <mxGeometry relative="1" as="geometry">
            <mxPoint x="265" y="360" as="sourcePoint" />
            <mxPoint x="98" y="359" as="targetPoint" />
          </mxGeometry>
        </mxCell>
        <mxCell id="X7xnpgFMUHOgwkHhTbRH-41" value="" style="endArrow=none;dashed=1;html=1;rounded=0;entryX=1.001;entryY=0.863;entryDx=0;entryDy=0;entryPerimeter=0;exitX=0;exitY=0.862;exitDx=0;exitDy=0;exitPerimeter=0;" edge="1" parent="1" source="X7xnpgFMUHOgwkHhTbRH-40" target="X7xnpgFMUHOgwkHhTbRH-40">
          <mxGeometry width="50" height="50" relative="1" as="geometry">
            <mxPoint x="-60" y="755" as="sourcePoint" />
            <mxPoint x="241.63" y="250" as="targetPoint" />
          </mxGeometry>
        </mxCell>
        <mxCell id="X7xnpgFMUHOgwkHhTbRH-42" value="" style="endArrow=none;dashed=1;html=1;rounded=0;entryX=1;entryY=0.44;entryDx=0;entryDy=0;entryPerimeter=0;exitX=-0.001;exitY=0.435;exitDx=0;exitDy=0;exitPerimeter=0;" edge="1" parent="1" source="X7xnpgFMUHOgwkHhTbRH-40" target="X7xnpgFMUHOgwkHhTbRH-40">
          <mxGeometry width="50" height="50" relative="1" as="geometry">
            <mxPoint x="-28.369999999999997" y="-68" as="sourcePoint" />
            <mxPoint x="1102.63" y="-65" as="targetPoint" />
          </mxGeometry>
        </mxCell>
        <mxCell id="X7xnpgFMUHOgwkHhTbRH-43" value="&lt;span style=&quot;font-size: 11px;&quot;&gt;[Seleciona el tipo JSON]&lt;/span&gt;" style="text;html=1;align=center;verticalAlign=middle;resizable=0;points=[];autosize=1;strokeColor=none;fillColor=none;" vertex="1" parent="1">
          <mxGeometry x="1540" y="365" width="140" height="30" as="geometry" />
        </mxCell>
        <mxCell id="X7xnpgFMUHOgwkHhTbRH-44" value="&lt;span style=&quot;font-size: 11px;&quot;&gt;[Seleciona el tipo HTML]&lt;/span&gt;" style="text;html=1;align=center;verticalAlign=middle;resizable=0;points=[];autosize=1;strokeColor=none;fillColor=none;" vertex="1" parent="1">
          <mxGeometry x="1539" y="593" width="140" height="30" as="geometry" />
        </mxCell>
        <mxCell id="X7xnpgFMUHOgwkHhTbRH-45" value="&lt;span style=&quot;font-size: 11px;&quot;&gt;[Cancela]&lt;/span&gt;" style="text;html=1;align=center;verticalAlign=middle;resizable=0;points=[];autosize=1;strokeColor=none;fillColor=none;" vertex="1" parent="1">
          <mxGeometry x="1610" y="810" width="70" height="30" as="geometry" />
        </mxCell>
        <mxCell id="X7xnpgFMUHOgwkHhTbRH-46" value="" style="shape=umlLifeline;perimeter=lifelinePerimeter;whiteSpace=wrap;html=1;container=1;dropTarget=0;collapsible=0;recursiveResize=0;outlineConnect=0;portConstraint=eastwest;newEdgeStyle={&quot;edgeStyle&quot;:&quot;elbowEdgeStyle&quot;,&quot;elbow&quot;:&quot;vertical&quot;,&quot;curved&quot;:0,&quot;rounded&quot;:0};participant=umlActor;fillColor=#E6FFCC;" vertex="1" parent="1">
          <mxGeometry x="1335" y="40" width="20" height="950" as="geometry" />
        </mxCell>
        <mxCell id="X7xnpgFMUHOgwkHhTbRH-47" value="Sistema" style="text;html=1;align=center;verticalAlign=middle;resizable=0;points=[];autosize=1;strokeColor=none;fillColor=none;" vertex="1" parent="1">
          <mxGeometry x="1310" y="10" width="70" height="30" as="geometry" />
        </mxCell>
        <mxCell id="X7xnpgFMUHOgwkHhTbRH-48" value="" style="rounded=0;whiteSpace=wrap;html=1;fillColor=#91DEBF;" vertex="1" parent="1">
          <mxGeometry x="265" y="380" width="10" height="30" as="geometry" />
        </mxCell>
        <mxCell id="X7xnpgFMUHOgwkHhTbRH-50" value="Seleciona JSON" style="html=1;verticalAlign=bottom;endArrow=block;edgeStyle=elbowEdgeStyle;elbow=vertical;curved=0;rounded=0;" edge="1" parent="1">
          <mxGeometry width="80" relative="1" as="geometry">
            <mxPoint x="95" y="390" as="sourcePoint" />
            <mxPoint x="259" y="390" as="targetPoint" />
          </mxGeometry>
        </mxCell>
        <mxCell id="X7xnpgFMUHOgwkHhTbRH-51" value="Evento" style="html=1;verticalAlign=bottom;endArrow=block;edgeStyle=elbowEdgeStyle;elbow=vertical;curved=0;rounded=0;" edge="1" parent="1">
          <mxGeometry width="80" relative="1" as="geometry">
            <mxPoint x="275" y="400.13" as="sourcePoint" />
            <mxPoint x="439" y="400.13" as="targetPoint" />
          </mxGeometry>
        </mxCell>
        <mxCell id="X7xnpgFMUHOgwkHhTbRH-52" value="" style="rounded=0;whiteSpace=wrap;html=1;fillColor=#F7BBBD;" vertex="1" parent="1">
          <mxGeometry x="445" y="390" width="10" height="30" as="geometry" />
        </mxCell>
        <mxCell id="X7xnpgFMUHOgwkHhTbRH-53" value="viewModel.exportJSON()" style="html=1;verticalAlign=bottom;endArrow=block;edgeStyle=elbowEdgeStyle;elbow=vertical;curved=0;rounded=0;" edge="1" parent="1">
          <mxGeometry width="80" relative="1" as="geometry">
            <mxPoint x="455" y="410.75" as="sourcePoint" />
            <mxPoint x="633" y="410" as="targetPoint" />
          </mxGeometry>
        </mxCell>
        <mxCell id="X7xnpgFMUHOgwkHhTbRH-55" value="" style="rounded=0;whiteSpace=wrap;html=1;fillColor=#9FD8E4;" vertex="1" parent="1">
          <mxGeometry x="635" y="400" width="10" height="160" as="geometry" />
        </mxCell>
        <mxCell id="X7xnpgFMUHOgwkHhTbRH-56" value="storageJSON(Cita)" style="html=1;verticalAlign=bottom;endArrow=block;edgeStyle=elbowEdgeStyle;elbow=vertical;curved=0;rounded=0;" edge="1" parent="1">
          <mxGeometry width="80" relative="1" as="geometry">
            <mxPoint x="645" y="420" as="sourcePoint" />
            <mxPoint x="1161" y="420" as="targetPoint" />
          </mxGeometry>
        </mxCell>
        <mxCell id="X7xnpgFMUHOgwkHhTbRH-57" value="" style="rounded=0;whiteSpace=wrap;html=1;fillColor=#E6E6E6;" vertex="1" parent="1">
          <mxGeometry x="1165" y="410" width="10" height="60" as="geometry" />
        </mxCell>
        <mxCell id="X7xnpgFMUHOgwkHhTbRH-58" value="Result" style="html=1;verticalAlign=bottom;endArrow=open;dashed=1;endSize=8;edgeStyle=elbowEdgeStyle;elbow=vertical;curved=0;rounded=0;" edge="1" parent="1">
          <mxGeometry relative="1" as="geometry">
            <mxPoint x="1165" y="459.33" as="sourcePoint" />
            <mxPoint x="649" y="460" as="targetPoint" />
          </mxGeometry>
        </mxCell>
        <mxCell id="X7xnpgFMUHOgwkHhTbRH-60" value="" style="html=1;verticalAlign=bottom;endArrow=block;edgeStyle=elbowEdgeStyle;elbow=vertical;curved=0;rounded=0;" edge="1" parent="1">
          <mxGeometry width="80" relative="1" as="geometry">
            <mxPoint x="1175" y="430" as="sourcePoint" />
            <mxPoint x="1341" y="430" as="targetPoint" />
          </mxGeometry>
        </mxCell>
        <mxCell id="X7xnpgFMUHOgwkHhTbRH-61" value="" style="html=1;verticalAlign=bottom;endArrow=open;dashed=1;endSize=8;edgeStyle=elbowEdgeStyle;elbow=vertical;curved=0;rounded=0;" edge="1" parent="1">
          <mxGeometry relative="1" as="geometry">
            <mxPoint x="1338" y="450" as="sourcePoint" />
            <mxPoint x="1175" y="449.76" as="targetPoint" />
          </mxGeometry>
        </mxCell>
        <mxCell id="X7xnpgFMUHOgwkHhTbRH-62" value="" style="rounded=0;whiteSpace=wrap;html=1;fillColor=#E6FFCC;" vertex="1" parent="1">
          <mxGeometry x="1340" y="420" width="10" height="40" as="geometry" />
        </mxCell>
        <mxCell id="X7xnpgFMUHOgwkHhTbRH-64" value="" style="endArrow=none;dashed=1;html=1;rounded=0;entryX=1.001;entryY=0.674;entryDx=0;entryDy=0;entryPerimeter=0;exitX=0;exitY=0.669;exitDx=0;exitDy=0;exitPerimeter=0;" edge="1" parent="1" source="X7xnpgFMUHOgwkHhTbRH-59" target="X7xnpgFMUHOgwkHhTbRH-59">
          <mxGeometry width="50" height="50" relative="1" as="geometry">
            <mxPoint x="30" y="630" as="sourcePoint" />
            <mxPoint x="1150" y="630" as="targetPoint" />
          </mxGeometry>
        </mxCell>
        <mxCell id="X7xnpgFMUHOgwkHhTbRH-65" value="Muestra un Alert de Información" style="html=1;verticalAlign=bottom;endArrow=open;dashed=1;endSize=8;edgeStyle=elbowEdgeStyle;elbow=vertical;curved=0;rounded=0;" edge="1" parent="1">
          <mxGeometry relative="1" as="geometry">
            <mxPoint x="635" y="470.21000000000004" as="sourcePoint" />
            <mxPoint x="277" y="470" as="targetPoint" />
          </mxGeometry>
        </mxCell>
        <mxCell id="X7xnpgFMUHOgwkHhTbRH-66" value="" style="rounded=0;whiteSpace=wrap;html=1;fillColor=#91DEBF;" vertex="1" parent="1">
          <mxGeometry x="265" y="460" width="10" height="30" as="geometry" />
        </mxCell>
        <mxCell id="X7xnpgFMUHOgwkHhTbRH-67" value="Muestra el Alert" style="html=1;verticalAlign=bottom;endArrow=open;dashed=1;endSize=8;edgeStyle=elbowEdgeStyle;elbow=vertical;curved=0;rounded=0;" edge="1" parent="1">
          <mxGeometry relative="1" as="geometry">
            <mxPoint x="265" y="490.43000000000006" as="sourcePoint" />
            <mxPoint x="98" y="491" as="targetPoint" />
          </mxGeometry>
        </mxCell>
        <mxCell id="X7xnpgFMUHOgwkHhTbRH-68" value="Muestra un Alert de Error" style="html=1;verticalAlign=bottom;endArrow=open;dashed=1;endSize=8;edgeStyle=elbowEdgeStyle;elbow=vertical;curved=0;rounded=0;" edge="1" parent="1">
          <mxGeometry relative="1" as="geometry">
            <mxPoint x="635" y="539.21" as="sourcePoint" />
            <mxPoint x="277" y="539" as="targetPoint" />
          </mxGeometry>
        </mxCell>
        <mxCell id="X7xnpgFMUHOgwkHhTbRH-69" value="" style="rounded=0;whiteSpace=wrap;html=1;fillColor=#91DEBF;" vertex="1" parent="1">
          <mxGeometry x="265" y="530" width="10" height="29" as="geometry" />
        </mxCell>
        <mxCell id="X7xnpgFMUHOgwkHhTbRH-70" value="Muestra el Alert" style="html=1;verticalAlign=bottom;endArrow=open;dashed=1;endSize=8;edgeStyle=elbowEdgeStyle;elbow=vertical;curved=0;rounded=0;" edge="1" parent="1">
          <mxGeometry relative="1" as="geometry">
            <mxPoint x="265" y="559.4300000000001" as="sourcePoint" />
            <mxPoint x="98" y="560" as="targetPoint" />
          </mxGeometry>
        </mxCell>
        <mxCell id="X7xnpgFMUHOgwkHhTbRH-72" value="[Escritura correcta]" style="text;html=1;align=center;verticalAlign=middle;resizable=0;points=[];autosize=1;strokeColor=none;fillColor=none;" vertex="1" parent="1">
          <mxGeometry x="1380" y="370" width="120" height="30" as="geometry" />
        </mxCell>
        <mxCell id="X7xnpgFMUHOgwkHhTbRH-73" value="[SistemIO Exception]" style="text;html=1;align=center;verticalAlign=middle;resizable=0;points=[];autosize=1;strokeColor=none;fillColor=none;" vertex="1" parent="1">
          <mxGeometry x="1360" y="510" width="140" height="30" as="geometry" />
        </mxCell>
        <mxCell id="X7xnpgFMUHOgwkHhTbRH-75" value="" style="rounded=0;whiteSpace=wrap;html=1;fillColor=#91DEBF;" vertex="1" parent="1">
          <mxGeometry x="265" y="610" width="10" height="30" as="geometry" />
        </mxCell>
        <mxCell id="X7xnpgFMUHOgwkHhTbRH-76" value="Seleciona HTML" style="html=1;verticalAlign=bottom;endArrow=block;edgeStyle=elbowEdgeStyle;elbow=vertical;curved=0;rounded=0;" edge="1" parent="1">
          <mxGeometry width="80" relative="1" as="geometry">
            <mxPoint x="95" y="620" as="sourcePoint" />
            <mxPoint x="259" y="620" as="targetPoint" />
          </mxGeometry>
        </mxCell>
        <mxCell id="X7xnpgFMUHOgwkHhTbRH-77" value="Evento" style="html=1;verticalAlign=bottom;endArrow=block;edgeStyle=elbowEdgeStyle;elbow=vertical;curved=0;rounded=0;" edge="1" parent="1">
          <mxGeometry width="80" relative="1" as="geometry">
            <mxPoint x="275" y="630.13" as="sourcePoint" />
            <mxPoint x="439" y="630.13" as="targetPoint" />
          </mxGeometry>
        </mxCell>
        <mxCell id="X7xnpgFMUHOgwkHhTbRH-78" value="" style="rounded=0;whiteSpace=wrap;html=1;fillColor=#F7BBBD;" vertex="1" parent="1">
          <mxGeometry x="445" y="620" width="10" height="30" as="geometry" />
        </mxCell>
        <mxCell id="X7xnpgFMUHOgwkHhTbRH-79" value="viewModel.exportHTML()" style="html=1;verticalAlign=bottom;endArrow=block;edgeStyle=elbowEdgeStyle;elbow=vertical;curved=0;rounded=0;" edge="1" parent="1">
          <mxGeometry width="80" relative="1" as="geometry">
            <mxPoint x="455" y="640.75" as="sourcePoint" />
            <mxPoint x="633" y="640" as="targetPoint" />
          </mxGeometry>
        </mxCell>
        <mxCell id="X7xnpgFMUHOgwkHhTbRH-80" value="" style="rounded=0;whiteSpace=wrap;html=1;fillColor=#9FD8E4;" vertex="1" parent="1">
          <mxGeometry x="635" y="630" width="10" height="160" as="geometry" />
        </mxCell>
        <mxCell id="X7xnpgFMUHOgwkHhTbRH-81" value="storageHTML(Cita)" style="html=1;verticalAlign=bottom;endArrow=block;edgeStyle=elbowEdgeStyle;elbow=vertical;curved=0;rounded=0;" edge="1" parent="1">
          <mxGeometry width="80" relative="1" as="geometry">
            <mxPoint x="645" y="650" as="sourcePoint" />
            <mxPoint x="1161" y="650" as="targetPoint" />
          </mxGeometry>
        </mxCell>
        <mxCell id="X7xnpgFMUHOgwkHhTbRH-82" value="" style="rounded=0;whiteSpace=wrap;html=1;fillColor=#E6E6E6;" vertex="1" parent="1">
          <mxGeometry x="1165" y="640" width="10" height="60" as="geometry" />
        </mxCell>
        <mxCell id="X7xnpgFMUHOgwkHhTbRH-83" value="Result" style="html=1;verticalAlign=bottom;endArrow=open;dashed=1;endSize=8;edgeStyle=elbowEdgeStyle;elbow=vertical;curved=0;rounded=0;" edge="1" parent="1">
          <mxGeometry relative="1" as="geometry">
            <mxPoint x="1165" y="689.3299999999999" as="sourcePoint" />
            <mxPoint x="649" y="690" as="targetPoint" />
          </mxGeometry>
        </mxCell>
        <mxCell id="X7xnpgFMUHOgwkHhTbRH-84" value="" style="html=1;verticalAlign=bottom;endArrow=block;edgeStyle=elbowEdgeStyle;elbow=vertical;curved=0;rounded=0;" edge="1" parent="1">
          <mxGeometry width="80" relative="1" as="geometry">
            <mxPoint x="1175" y="660" as="sourcePoint" />
            <mxPoint x="1341" y="660" as="targetPoint" />
          </mxGeometry>
        </mxCell>
        <mxCell id="X7xnpgFMUHOgwkHhTbRH-85" value="" style="html=1;verticalAlign=bottom;endArrow=open;dashed=1;endSize=8;edgeStyle=elbowEdgeStyle;elbow=vertical;curved=0;rounded=0;" edge="1" parent="1">
          <mxGeometry relative="1" as="geometry">
            <mxPoint x="1338" y="680" as="sourcePoint" />
            <mxPoint x="1175" y="679.76" as="targetPoint" />
          </mxGeometry>
        </mxCell>
        <mxCell id="X7xnpgFMUHOgwkHhTbRH-86" value="" style="rounded=0;whiteSpace=wrap;html=1;fillColor=#E6FFCC;" vertex="1" parent="1">
          <mxGeometry x="1340" y="650" width="10" height="40" as="geometry" />
        </mxCell>
        <mxCell id="X7xnpgFMUHOgwkHhTbRH-87" value="" style="endArrow=none;dashed=1;html=1;rounded=0;entryX=1.001;entryY=0.674;entryDx=0;entryDy=0;entryPerimeter=0;exitX=0;exitY=0.669;exitDx=0;exitDy=0;exitPerimeter=0;" edge="1" parent="1" source="X7xnpgFMUHOgwkHhTbRH-74" target="X7xnpgFMUHOgwkHhTbRH-74">
          <mxGeometry width="50" height="50" relative="1" as="geometry">
            <mxPoint x="30" y="860" as="sourcePoint" />
            <mxPoint x="1150" y="860" as="targetPoint" />
          </mxGeometry>
        </mxCell>
        <mxCell id="X7xnpgFMUHOgwkHhTbRH-88" value="Muestra un Alert de Información" style="html=1;verticalAlign=bottom;endArrow=open;dashed=1;endSize=8;edgeStyle=elbowEdgeStyle;elbow=vertical;curved=0;rounded=0;" edge="1" parent="1">
          <mxGeometry relative="1" as="geometry">
            <mxPoint x="635" y="700.21" as="sourcePoint" />
            <mxPoint x="277" y="700" as="targetPoint" />
          </mxGeometry>
        </mxCell>
        <mxCell id="X7xnpgFMUHOgwkHhTbRH-89" value="" style="rounded=0;whiteSpace=wrap;html=1;fillColor=#91DEBF;" vertex="1" parent="1">
          <mxGeometry x="265" y="690" width="10" height="30" as="geometry" />
        </mxCell>
        <mxCell id="X7xnpgFMUHOgwkHhTbRH-90" value="Muestra el Alert" style="html=1;verticalAlign=bottom;endArrow=open;dashed=1;endSize=8;edgeStyle=elbowEdgeStyle;elbow=vertical;curved=0;rounded=0;" edge="1" parent="1">
          <mxGeometry relative="1" as="geometry">
            <mxPoint x="265" y="720.4300000000001" as="sourcePoint" />
            <mxPoint x="98" y="721" as="targetPoint" />
          </mxGeometry>
        </mxCell>
        <mxCell id="X7xnpgFMUHOgwkHhTbRH-91" value="Muestra un Alert de Error" style="html=1;verticalAlign=bottom;endArrow=open;dashed=1;endSize=8;edgeStyle=elbowEdgeStyle;elbow=vertical;curved=0;rounded=0;" edge="1" parent="1">
          <mxGeometry relative="1" as="geometry">
            <mxPoint x="635" y="769.21" as="sourcePoint" />
            <mxPoint x="277" y="769" as="targetPoint" />
          </mxGeometry>
        </mxCell>
        <mxCell id="X7xnpgFMUHOgwkHhTbRH-92" value="Muestra el Alert" style="html=1;verticalAlign=bottom;endArrow=open;dashed=1;endSize=8;edgeStyle=elbowEdgeStyle;elbow=vertical;curved=0;rounded=0;" edge="1" parent="1">
          <mxGeometry relative="1" as="geometry">
            <mxPoint x="265" y="789.4300000000001" as="sourcePoint" />
            <mxPoint x="98" y="790" as="targetPoint" />
          </mxGeometry>
        </mxCell>
        <mxCell id="X7xnpgFMUHOgwkHhTbRH-93" value="[Escritura correcta]" style="text;html=1;align=center;verticalAlign=middle;resizable=0;points=[];autosize=1;strokeColor=none;fillColor=none;" vertex="1" parent="1">
          <mxGeometry x="1380" y="600" width="120" height="30" as="geometry" />
        </mxCell>
        <mxCell id="X7xnpgFMUHOgwkHhTbRH-94" value="[SistemIO Exception]" style="text;html=1;align=center;verticalAlign=middle;resizable=0;points=[];autosize=1;strokeColor=none;fillColor=none;" vertex="1" parent="1">
          <mxGeometry x="1360" y="740" width="140" height="30" as="geometry" />
        </mxCell>
        <mxCell id="X7xnpgFMUHOgwkHhTbRH-95" value="" style="rounded=0;whiteSpace=wrap;html=1;fillColor=#91DEBF;" vertex="1" parent="1">
          <mxGeometry x="265" y="820" width="10" height="50" as="geometry" />
        </mxCell>
        <mxCell id="X7xnpgFMUHOgwkHhTbRH-96" value="Selecciona Cancelar" style="html=1;verticalAlign=bottom;endArrow=block;edgeStyle=elbowEdgeStyle;elbow=vertical;curved=0;rounded=0;" edge="1" parent="1">
          <mxGeometry width="80" relative="1" as="geometry">
            <mxPoint x="95" y="830" as="sourcePoint" />
            <mxPoint x="261" y="830" as="targetPoint" />
          </mxGeometry>
        </mxCell>
        <mxCell id="X7xnpgFMUHOgwkHhTbRH-97" value="Oculta la alert" style="html=1;verticalAlign=bottom;endArrow=open;dashed=1;endSize=8;edgeStyle=elbowEdgeStyle;elbow=vertical;curved=0;rounded=0;" edge="1" parent="1">
          <mxGeometry relative="1" as="geometry">
            <mxPoint x="265" y="860.0000000000001" as="sourcePoint" />
            <mxPoint x="98" y="860.57" as="targetPoint" />
          </mxGeometry>
        </mxCell>
      </root>
    </mxGraphModel>
  </diagram>
</mxfile>
